<svg width="15" height="16" viewBox="0 0 15 16" fill="none" xmlns="http://www.w3.org/2000/svg">
<path d="M0.517837 14.213C0.240674 14.5208 0.265527 14.995 0.573347 15.2722C0.881168 15.5494 1.35539 15.5245 1.63255 15.2167L0.517837 14.213ZM13.7072 1.47815C13.6855 1.06451 13.3326 0.746756 12.919 0.768434L6.17822 1.1217C5.76458 1.14338 5.44682 1.49628 5.4685 1.90993C5.49018 2.32357 5.84308 2.64132 6.25673 2.61965L12.2485 2.30563L12.5625 8.29741C12.5842 8.71105 12.9371 9.0288 13.3507 9.00713C13.7644 8.98545 14.0821 8.63255 14.0605 8.2189L13.7072 1.47815ZM1.63255 15.2167L13.5156 2.01925L12.4009 1.01556L0.517837 14.213L1.63255 15.2167Z" fill="#ADB5BD"/>
</svg>
