<svg width="18" height="19" viewBox="0 0 18 19" fill="none" xmlns="http://www.w3.org/2000/svg">
<path d="M13.0969 1.27344L12.7512 1.89071L13.6258 3.17813L13.3274 4.74093L14.5271 6.50697L15.196 6.05265L15.0941 8.22995L15.0976 8.23005L14.7716 14.3315C14.7266 14.9352 14.4652 15.1019 14.2751 15.1025C14.0855 15.1032 13.7978 14.9249 13.7144 14.3166L13.1523 6.44812L13.1513 6.43989C13.0924 5.96725 12.9047 5.56925 12.5497 5.33623C12.2459 5.13679 11.8678 5.06015 11.3958 5.04215V4.79149C11.3958 3.98233 11.2594 3.51331 10.9985 3.2501C10.7376 2.98688 10.277 2.84988 9.46541 2.85789H4.96228C4.15369 2.85789 3.69026 2.99536 3.4282 3.25738C3.16611 3.51946 3.02869 3.98289 3.02869 4.79149V16.0415H2.14978V17.729H12.2748V16.0415H11.3959V5.67648C11.7906 5.69652 12.0508 5.7657 12.2025 5.86527C12.3831 5.98388 12.4765 6.14813 12.5226 6.51446L13.0849 14.3864L13.0863 14.3962C13.1958 15.2092 13.6981 15.7374 14.2775 15.7353C14.8569 15.7332 15.3429 15.1873 15.4028 14.3773L15.4031 14.3741L15.7338 8.18354L15.7299 8.18333L15.8504 5.60813L15.8035 5.25748L13.097 1.27344H13.0969ZM14.1287 3.91845L15.1022 5.35128L14.695 5.62796L13.9982 4.6021L14.1287 3.91845ZM3.83728 4.22895H10.5873V7.04145H3.83728V4.22895ZM4.39978 7.85005H10.0248V8.48286H4.39978V7.85005ZM4.39978 8.97505H10.0248V9.60786H4.39978V8.97505Z" fill="#ADB5BD"/>
</svg>
