<svg width="27" height="27" viewBox="0 0 27 27" fill="none" xmlns="http://www.w3.org/2000/svg">
<path d="M16.6005 12.9828L7.60693 11.3984V23.1058C7.60683 23.233 7.63184 23.359 7.68053 23.4766C7.72923 23.5941 7.80065 23.7009 7.8907 23.7908C7.98075 23.8807 8.08766 23.952 8.2053 24.0005C8.32294 24.049 8.449 24.0738 8.57625 24.0734H24.095C24.2224 24.074 24.3486 24.0493 24.4664 24.0009C24.5843 23.9525 24.6914 23.8813 24.7816 23.7914C24.8718 23.7015 24.9434 23.5946 24.9922 23.4769C25.041 23.3593 25.066 23.2331 25.0659 23.1058V18.7922L16.6005 12.9828Z" fill="#185C37"/>
<path d="M16.6005 2.94922H8.57625C8.449 2.9489 8.32294 2.9737 8.2053 3.0222C8.08766 3.07069 7.98075 3.14194 7.8907 3.23184C7.80065 3.32174 7.72923 3.42853 7.68053 3.54609C7.63184 3.66365 7.60683 3.78966 7.60693 3.91691V8.23047L16.6005 13.5117L21.3626 15.0961L25.0659 13.5117V8.23047L16.6005 2.94922Z" fill="#21A366"/>
<path d="M7.60693 8.23047H16.6005V13.5117H7.60693V8.23047Z" fill="#107C41"/>
<path opacity="0.1" d="M14.0436 7.17383H7.60693V20.377H14.0436C14.3 20.3757 14.5457 20.2734 14.7273 20.0923C14.9089 19.9111 15.0118 19.6657 15.0137 19.4093V8.14152C15.0118 7.88504 14.9089 7.63965 14.7273 7.45852C14.5457 7.27739 14.3 7.1751 14.0436 7.17383Z" fill="black"/>
<path opacity="0.2" d="M13.5146 7.70312H7.60693V20.9062H13.5146C13.7711 20.905 14.0167 20.8027 14.1983 20.6216C14.3799 20.4404 14.4828 20.195 14.4847 19.9386V8.67081C14.4828 8.41434 14.3799 8.16895 14.1983 7.98782C14.0167 7.80669 13.7711 7.7044 13.5146 7.70312Z" fill="black"/>
<path opacity="0.2" d="M13.5146 7.70312H7.60693V19.85H13.5146C13.7711 19.8487 14.0167 19.7464 14.1983 19.5653C14.3799 19.3842 14.4828 19.1388 14.4847 18.8823V8.67081C14.4828 8.41434 14.3799 8.16895 14.1983 7.98782C14.0167 7.80669 13.7711 7.7044 13.5146 7.70312Z" fill="black"/>
<path opacity="0.2" d="M12.9857 7.70312H7.60693V19.85H12.9857C13.2422 19.8487 13.4878 19.7464 13.6694 19.5653C13.851 19.3842 13.9539 19.1388 13.9558 18.8823V8.67081C13.9539 8.41434 13.851 8.16895 13.6694 7.98782C13.4878 7.80669 13.2422 7.7044 12.9857 7.70312Z" fill="black"/>
<path d="M3.28604 7.70313H12.9857C13.2426 7.70291 13.4891 7.80472 13.671 7.98617C13.8529 8.16763 13.9554 8.41388 13.9558 8.67082V18.3542C13.9554 18.6111 13.8529 18.8574 13.671 19.0388C13.4891 19.2203 13.2426 19.3221 12.9857 19.3219H3.28604C3.15873 19.3223 3.03259 19.2976 2.91485 19.2491C2.79711 19.2007 2.69011 19.1295 2.59997 19.0396C2.50983 18.9496 2.43834 18.8428 2.38959 18.7252C2.34085 18.6076 2.31581 18.4815 2.31592 18.3542V8.67082C2.31581 8.5435 2.34085 8.41742 2.38959 8.29981C2.43834 8.1822 2.50983 8.07537 2.59997 7.98546C2.69011 7.89554 2.79711 7.82432 2.91485 7.77587C3.03259 7.72742 3.15873 7.7027 3.28604 7.70313Z" fill="url(#paint0_linear_2631_13957)"/>
<path d="M5.32227 16.6589L7.36245 13.5031L5.4937 10.3652H6.99439L8.01408 12.3745C8.10833 12.5647 8.17658 12.706 8.20745 12.8003H8.22127C8.28789 12.6481 8.35831 12.5002 8.43252 12.3567L9.52289 10.3685H10.9041L8.98745 13.4885L10.9529 16.6613H9.48308L8.30495 14.4586C8.25041 14.3638 8.20393 14.2646 8.16602 14.162H8.14652C8.11208 14.262 8.06628 14.3577 8.01002 14.4472L6.79695 16.6589H5.32227Z" fill="white"/>
<path d="M24.0959 2.94922H16.6006V8.23047H25.066V3.91691C25.0661 3.7896 25.0411 3.66352 24.9923 3.5459C24.9436 3.42829 24.8721 3.32146 24.782 3.23155C24.6918 3.14164 24.5848 3.07041 24.4671 3.02197C24.3494 2.97352 24.2232 2.9488 24.0959 2.94922Z" fill="#33C481"/>
<path d="M16.6006 13.5117H25.066V18.793H16.6006V13.5117Z" fill="#107C41"/>
<defs>
<linearGradient id="paint0_linear_2631_13957" x1="4.34229" y1="6.94263" x2="11.9294" y2="20.0824" gradientUnits="userSpaceOnUse">
<stop stop-color="#18884F"/>
<stop offset="0.5" stop-color="#117E43"/>
<stop offset="1" stop-color="#0B6631"/>
</linearGradient>
</defs>
</svg>
