<svg width="123" height="124" viewBox="0 0 123 124" fill="none" xmlns="http://www.w3.org/2000/svg">
<rect x="9.72058" y="10.1738" width="103.934" height="103.934" rx="51.9672" fill="#F4EBFF"/>
<rect x="9.72058" y="10.1738" width="103.934" height="103.934" rx="51.9672" stroke="#F9F5FF" stroke-width="18.5597"/>
<path d="M40.0347 51.3143L57.7142 63.6899C59.1458 64.6921 59.8616 65.1931 60.6402 65.3872C61.328 65.5587 62.0473 65.5587 62.7351 65.3872C63.5137 65.1931 64.2295 64.6921 65.6612 63.6899L83.3407 51.3143M50.4281 79.4632H72.9472C76.5853 79.4632 78.4043 79.4632 79.7938 78.7552C81.0161 78.1324 82.0099 77.1386 82.6327 75.9163C83.3407 74.5268 83.3407 72.7078 83.3407 69.0697V55.2118C83.3407 51.5738 83.3407 49.7547 82.6327 48.3652C82.0099 47.1429 81.0161 46.1492 79.7938 45.5264C78.4043 44.8184 76.5853 44.8184 72.9472 44.8184H50.4281C46.7901 44.8184 44.971 44.8184 43.5815 45.5264C42.3592 46.1492 41.3655 47.1429 40.7427 48.3652C40.0347 49.7547 40.0347 51.5738 40.0347 55.2118V69.0697C40.0347 72.7078 40.0347 74.5268 40.7427 75.9163C41.3655 77.1386 42.3592 78.1324 43.5815 78.7552C44.971 79.4632 46.7901 79.4632 50.4281 79.4632Z" stroke="#3A57E8" stroke-width="3.71194" stroke-linecap="round" stroke-linejoin="round"/>
</svg>
