<svg width="19" height="19" viewBox="0 0 19 19" fill="none" xmlns="http://www.w3.org/2000/svg">
<path d="M9.35636 1.625C9.75011 2.86426 9.18761 4.05078 8.06261 4.4375C8.2173 4.89805 8.80089 5.35859 9.37745 5.50977C9.80636 4.8875 10.2071 4.19492 10.0771 3.56492C10.5165 4.11406 10.7275 5.00703 10.288 5.47813C10.8259 5.31641 11.3497 4.9332 11.4376 4.4375C11.638 3.28859 10.1614 2.1875 9.35636 1.625ZM3.95776 4.12109L7.7462 8.16758V7.23945L5.41886 4.75391H7.50011V4.12109H3.95776ZM12.0001 4.12109V4.75391H14.0814L11.754 7.23945V8.69141H13.0196V8.05859H11.856L15.5439 4.12109H12.0001ZM8.94151 6.37109V6.93359H10.5587V6.37109H8.94151ZM8.37901 7.56641V8.62109H11.1212V7.56641H8.37901ZM13.6525 7.56641V9.18359H14.3907V7.56641H13.6525ZM7.50011 9.25391C7.51769 9.25391 7.31378 9.31367 7.09933 9.47187C6.88487 9.63008 6.63526 9.86562 6.40323 10.1293C6.04112 10.5406 5.7423 11.0398 5.62276 11.4336H12.3165V16.5664H5.56651V17.6211H13.9337V11.75C13.9337 11.3457 13.5646 10.6602 13.097 10.1293C12.865 9.86562 12.6153 9.63008 12.4009 9.47187C12.1864 9.31367 11.9825 9.25391 12.0001 9.25391H7.50011ZM5.56651 12.0664V15.9336H11.6837V12.0664H5.56651Z" fill="#ADB5BD"/>
</svg>
