<svg width="16" height="19" viewBox="0 0 16 19" fill="none" xmlns="http://www.w3.org/2000/svg">
<path d="M14.0468 0.0625C14.5033 0.0625 14.9411 0.243856 15.2639 0.566671C15.5868 0.889486 15.7681 1.32732 15.7681 1.78385V12.1119C15.7681 12.5685 15.5868 13.0063 15.2639 13.3291C14.9411 13.6519 14.5033 13.8333 14.0468 13.8333H12.3254V15.5546C12.3254 16.0111 12.1441 16.449 11.8213 16.7718C11.4984 17.0946 11.0606 17.276 10.6041 17.276H1.99735C1.54082 17.276 1.10299 17.0946 0.780172 16.7718C0.457357 16.449 0.276001 16.0111 0.276001 15.5546V5.22654C0.276001 4.77001 0.457357 4.33218 0.780172 4.00936C1.10299 3.68655 1.54082 3.50519 1.99735 3.50519H3.71869V1.78385C3.71869 1.32732 3.90005 0.889486 4.22286 0.566671C4.54568 0.243856 4.98351 0.0625 5.44004 0.0625H14.0468ZM6.30071 11.2513H4.57937C4.36 11.2515 4.149 11.3355 3.98949 11.4861C3.82998 11.6367 3.73398 11.8425 3.72113 12.0615C3.70827 12.2805 3.77952 12.4961 3.92032 12.6643C4.06112 12.8326 4.26084 12.9407 4.47867 12.9666L4.57937 12.9726H6.30071C6.52008 12.9724 6.73108 12.8884 6.89059 12.7378C7.05011 12.5872 7.1461 12.3814 7.15895 12.1624C7.17181 11.9434 7.10056 11.7277 6.95976 11.5595C6.81896 11.3913 6.61925 11.2832 6.40141 11.2573L6.30071 11.2513ZM14.0468 1.78385H5.44004V3.50519H10.6041C11.0606 3.50519 11.4984 3.68655 11.8213 4.00936C12.1441 4.33218 12.3254 4.77001 12.3254 5.22654V12.1119H14.0468V1.78385ZM8.02206 7.80856H4.57937C4.3511 7.80856 4.13219 7.89924 3.97078 8.06064C3.80937 8.22205 3.71869 8.44097 3.71869 8.66923C3.71869 8.8975 3.80937 9.11641 3.97078 9.27782C4.13219 9.43923 4.3511 9.52991 4.57937 9.52991H8.02206C8.25032 9.52991 8.46924 9.43923 8.63065 9.27782C8.79206 9.11641 8.88273 8.8975 8.88273 8.66923C8.88273 8.44097 8.79206 8.22205 8.63065 8.06064C8.46924 7.89924 8.25032 7.80856 8.02206 7.80856Z" fill="#A0AEC0"/>
</svg>
