<svg width="27" height="27" viewBox="0 0 27 27" fill="none" xmlns="http://www.w3.org/2000/svg">
<path d="M20.2721 2.19531L24.7928 6.90781V24.8283H7.90503V24.8868H24.8505V6.96712L20.2721 2.19531Z" fill="#909090"/>
<path d="M20.2161 2.13672H7.84741V24.8282H24.7929V6.90853L20.2161 2.13672Z" fill="#F4F4F4"/>
<path d="M7.72312 3.35547H2.53125V8.90241H18.8625V3.35547H7.72312Z" fill="#7A7B7C"/>
<path d="M18.9495 8.80881H2.63696V3.25781H18.9495V8.80881Z" fill="#DD2025"/>
<path d="M8.04558 4.19588H6.98364V8.09588H7.81889V6.78044L8.00333 6.791C8.1826 6.78853 8.36023 6.75641 8.52902 6.69594C8.6774 6.64556 8.81377 6.56507 8.92958 6.4595C9.04834 6.35993 9.14165 6.23347 9.20177 6.09063C9.28403 5.85396 9.31316 5.60208 9.28708 5.35288C9.28245 5.17482 9.25123 4.99846 9.19445 4.82963C9.14329 4.7076 9.06722 4.59759 8.9711 4.50665C8.87499 4.41571 8.76094 4.34584 8.63627 4.3015C8.52879 4.2617 8.4174 4.23337 8.30396 4.217C8.21826 4.20305 8.13159 4.19599 8.04477 4.19588M7.89121 6.05975H7.81889V4.85725H7.9757C8.04491 4.85226 8.11436 4.86289 8.17891 4.88834C8.24346 4.9138 8.30147 4.95343 8.34864 5.00432C8.4464 5.13514 8.49863 5.29438 8.49733 5.45769C8.49733 5.65757 8.49733 5.83875 8.31695 5.96632C8.18704 6.03788 8.03911 6.07087 7.89121 6.05975ZM10.8739 4.18532C10.7837 4.18532 10.696 4.19182 10.6342 4.19425L10.4408 4.19913H9.80708V8.09913H10.553C10.838 8.10646 11.1217 8.05816 11.3882 7.95694C11.6028 7.87219 11.7927 7.73504 11.9407 7.558C12.0857 7.38019 12.1892 7.1723 12.2438 6.94944C12.3079 6.69751 12.339 6.43832 12.3364 6.17838C12.3523 5.87138 12.3285 5.56361 12.2657 5.26269C12.2056 5.04144 12.0942 4.83743 11.9407 4.66713C11.8203 4.52942 11.6722 4.41867 11.506 4.34213C11.3637 4.27615 11.2139 4.22759 11.06 4.1975C10.9987 4.18747 10.9367 4.18285 10.8747 4.18369M10.7268 7.3825H10.6456V4.893H10.6561C10.8236 4.87364 10.9932 4.90386 11.1436 4.97994C11.2539 5.06796 11.3437 5.17884 11.4069 5.30494C11.4751 5.43765 11.5144 5.58331 11.5223 5.73232C11.5296 5.91107 11.5223 6.05732 11.5223 6.17838C11.5253 6.31783 11.5163 6.45728 11.4955 6.59519C11.4699 6.73662 11.4236 6.87351 11.3581 7.00144C11.2842 7.12075 11.1831 7.22096 11.0632 7.29394C10.963 7.35894 10.8443 7.38921 10.7252 7.38007M14.8527 4.19913H12.8783V8.09913H13.7136V6.55213H14.7698V5.82738H13.7136V4.92388H14.8511V4.19913" fill="#464648"/>
<path d="M18.388 16.9682C18.388 16.9682 20.9782 16.4986 20.9782 17.3834C20.9782 18.2682 19.3735 17.9083 18.388 16.9682ZM16.4729 17.0357C16.0613 17.1263 15.6602 17.2595 15.2761 17.433L15.6011 16.7017C15.9261 15.9705 16.2633 14.9735 16.2633 14.9735C16.6501 15.6269 17.1014 16.2398 17.6104 16.8033C17.2272 16.8604 16.8475 16.9385 16.4729 17.0373V17.0357ZM15.4475 11.7544C15.4475 10.9833 15.697 10.7729 15.8912 10.7729C16.0853 10.7729 16.3039 10.8663 16.3112 11.5358C16.2479 12.209 16.1069 12.8726 15.8912 13.5135C15.5946 12.9758 15.4416 12.3708 15.4467 11.7568L15.4475 11.7544ZM11.6702 20.2987C10.8756 19.8233 13.3367 18.36 13.7827 18.3129C13.7803 18.3137 12.5022 20.7959 11.6702 20.2987ZM21.7347 17.4882C21.7265 17.407 21.6534 16.5075 20.0528 16.5457C19.3856 16.534 18.7187 16.5811 18.0597 16.6863C17.421 16.0434 16.8712 15.3179 16.425 14.5291C16.7059 13.716 16.8762 12.8688 16.9312 12.0103C16.9076 11.0353 16.6744 10.4763 15.9269 10.4845C15.1794 10.4926 15.0705 11.1467 15.1688 12.12C15.2651 12.7741 15.4467 13.4128 15.7092 14.0196C15.7092 14.0196 15.3638 15.0946 14.9072 16.1638C14.4506 17.2331 14.1386 17.7937 14.1386 17.7937C13.3444 18.0519 12.5969 18.436 11.9245 18.9312C11.255 19.5544 10.9828 20.033 11.3355 20.5115C11.6393 20.9243 12.7029 21.0177 13.6535 19.7722C14.1578 19.1282 14.6192 18.4518 15.0348 17.7474C15.0348 17.7474 16.4843 17.3501 16.9352 17.2412C17.3862 17.1323 17.9313 17.0462 17.9313 17.0462C17.9313 17.0462 19.2549 18.3779 20.5314 18.3308C21.8078 18.2837 21.746 17.5678 21.7379 17.4898" fill="#DD2025"/>
<path d="M20.1536 2.19922V6.97103H24.7304L20.1536 2.19922Z" fill="#909090"/>
<path d="M20.2161 2.13672V6.90853H24.7929L20.2161 2.13672Z" fill="#F4F4F4"/>
<path d="M7.98308 4.13338H6.92114V8.03338H7.75964V6.71875L7.94489 6.72932C8.12417 6.72685 8.30179 6.69473 8.47058 6.63425C8.61896 6.58387 8.75533 6.50338 8.87114 6.39782C8.98901 6.29796 9.08147 6.17153 9.14089 6.02894C9.22315 5.79227 9.25228 5.54039 9.2262 5.29119C9.22157 5.11313 9.19035 4.93677 9.13358 4.76794C9.08242 4.64591 9.00635 4.53591 8.91023 4.44497C8.81411 4.35402 8.70007 4.28415 8.57539 4.23982C8.46742 4.19962 8.35548 4.17102 8.24146 4.1545C8.15576 4.14055 8.06909 4.13349 7.98227 4.13338M7.8287 5.99725H7.75639V4.79475H7.91402C7.98323 4.78976 8.05267 4.80039 8.11722 4.82584C8.18177 4.8513 8.23978 4.89093 8.28695 4.94182C8.38471 5.07264 8.43694 5.23188 8.43564 5.39519C8.43564 5.59507 8.43564 5.77625 8.25527 5.90382C8.12536 5.97538 7.97742 6.00756 7.82952 5.99644M10.8114 4.12282C10.7212 4.12282 10.6335 4.12932 10.5717 4.13175L10.3808 4.13663H9.74702V8.03663H10.4929C10.7779 8.04396 11.0616 7.99566 11.3281 7.89444C11.5427 7.80969 11.7327 7.67254 11.8806 7.4955C12.0256 7.31769 12.1292 7.1098 12.1837 6.88694C12.2478 6.63501 12.2789 6.37582 12.2763 6.11588C12.2922 5.80888 12.2685 5.50111 12.2056 5.20019C12.1455 4.97894 12.0342 4.77493 11.8806 4.60463C11.7602 4.46692 11.6121 4.35617 11.446 4.27963C11.3036 4.21365 11.1539 4.16509 10.9999 4.135C10.9387 4.12497 10.8767 4.12035 10.8146 4.12119M10.6668 7.32H10.5855V4.8305H10.5961C10.7636 4.81114 10.9331 4.84136 11.0836 4.91744C11.1938 5.00546 11.2836 5.11634 11.3468 5.24244C11.415 5.37515 11.4544 5.52081 11.4622 5.66982C11.4695 5.84857 11.4622 5.99482 11.4622 6.11588C11.4652 6.25533 11.4562 6.39478 11.4354 6.53269C11.4098 6.67412 11.3636 6.81101 11.2981 6.93894C11.2241 7.05825 11.1231 7.15846 11.0031 7.23144C10.903 7.29645 10.7842 7.32671 10.6651 7.31757M14.7902 4.13663H12.8158V8.03663H13.6511V6.48963H14.7073V5.76488H13.6511V4.86138H14.7886V4.13663" fill="white"/>
</svg>
