<svg width="13" height="17" viewBox="0 0 13 17" fill="none" xmlns="http://www.w3.org/2000/svg">
<path d="M5.96875 3.4375H8.21875C8.37625 3.4375 8.5 3.56125 8.5 3.71875C8.5 3.87625 8.37625 4 8.21875 4H5.96875C5.81125 4 5.6875 3.87625 5.6875 3.71875C5.6875 3.56125 5.81125 3.4375 5.96875 3.4375Z" fill="#ADB5BD"/>
<path d="M0.625 16.375H10.75V15.8069C10.75 15.4975 10.5025 15.25 10.1931 15.25H10.1875V9.0625C10.2128 9.04956 10.3366 9.05631 10.4136 9.06025L10.4688 9.0625C10.6263 9.0625 10.75 9.18625 10.75 9.34375V13.2812C10.75 13.7481 11.1269 14.125 11.5938 14.125C12.0606 14.125 12.4375 13.7481 12.4375 13.2812V5.1025C12.4377 5.06374 12.4293 5.02542 12.4127 4.99037C12.3962 4.95532 12.372 4.92444 12.3419 4.9L10.57 3.48813C10.4125 3.36438 10.1875 3.4825 10.1875 3.69062V1.74437C10.1875 1.12563 9.68688 0.625 9.06812 0.625H2.30687C1.68812 0.625 1.1875 1.12563 1.1875 1.74437V7.375H10.1875V3.69062C10.1875 3.73 10.1931 3.76375 10.21 3.7975L10.7275 4.92812C10.7444 4.96187 10.75 5.00125 10.75 5.035V6.77875C10.75 7.11062 10.9975 7.36937 11.3069 7.36937H11.875V13.2812C11.875 13.4388 11.7513 13.5625 11.5938 13.5625C11.4362 13.5625 11.3125 13.4388 11.3125 13.2812V9.34375C11.3127 9.22975 11.2898 9.11691 11.2451 9.01201C11.2005 8.90712 11.1351 8.81236 11.0528 8.73345C10.9705 8.65454 10.8731 8.59313 10.7664 8.55291C10.6598 8.51269 10.5461 8.4945 10.4322 8.49944C10.3591 8.49831 10.2055 8.4955 10.1875 8.5V7.9375H1.1875V15.25C0.878125 15.25 0.625 15.5031 0.625 15.8125V16.375ZM2.89187 6.25C2.57125 6.25 2.3125 5.99125 2.3125 5.67063V2.875H9.0625V5.67063C9.0625 5.99125 8.80375 6.25 8.48312 6.25H2.89187ZM11.3181 6.475V5.59188C11.3181 5.36688 11.5769 5.25437 11.7231 5.41188L11.8075 5.50187C11.8525 5.54688 11.875 5.61437 11.875 5.68187V6.52844C11.8744 6.45893 11.8481 6.3921 11.8011 6.34086C11.7541 6.28962 11.6898 6.25759 11.6206 6.25095C11.5514 6.24431 11.4822 6.26353 11.4264 6.3049C11.3705 6.34628 11.3319 6.40687 11.3181 6.475Z" fill="#ADB5BD"/>
</svg>
