<svg width="230" height="30" viewBox="0 0 230 30" fill="none" xmlns="http://www.w3.org/2000/svg">
<rect y="0.800781" width="28.8" height="28.8" rx="6.4" fill="white" fill-opacity="0.16"/>
<path d="M12.2625 8.35547L11.6531 13.2183H12.9906L14.525 8.63797L12.2625 8.35547ZM15.1281 8.60547L13.5844 13.2183L18.2625 13.2214L19.3344 10.0148L15.1281 8.60547ZM11.625 8.93797L9.37812 9.18297L9.81875 13.2183H11.0906L11.625 8.93797ZM8 12.2808C7.64062 12.2808 7.40062 12.5558 7.33531 12.8183C7.30281 12.9495 7.32125 13.0558 7.35812 13.1152C7.39469 13.1714 7.44531 13.2183 7.625 13.2183H9.25312L9.15 12.2808H8ZM19.1687 12.2808L18.8562 13.2183H20.3406C20.2594 13.062 20.225 12.8964 20.2469 12.7308C20.2687 12.5683 20.3313 12.4214 20.4125 12.2808H19.1687ZM7.28125 13.7808V21.4964C7.28125 21.6558 7.36844 21.8433 7.51156 21.987C7.655 22.1308 7.84375 22.2183 8 22.2183L20 22.2214C20.1562 22.2214 20.3438 22.1339 20.4875 21.9902C20.6313 21.8464 20.7188 21.6589 20.7188 21.4995V19.2808H18C16.625 19.2808 16.625 16.7183 18 16.7183H20.7188V13.7839L7.28125 13.7808ZM18 17.2808C17.375 17.2808 17.375 18.7183 18 18.7183H18.6969C18.4156 18.5995 18.2188 18.3214 18.2188 17.9995C18.2188 17.6777 18.4156 17.3995 18.6969 17.2808H18ZM19.3031 17.2808C19.5844 17.3995 19.7812 17.6777 19.7812 17.9995C19.7812 18.3214 19.5844 18.5995 19.3031 18.7183H21.2188V17.2808H19.3031ZM19 17.7808C18.875 17.7808 18.7812 17.8745 18.7812 17.9995C18.7812 18.1245 18.875 18.2183 19 18.2183C19.125 18.2183 19.2188 18.1245 19.2188 17.9995C19.2188 17.8745 19.125 17.7808 19 17.7808Z" fill="white"/>
</svg>
